<svg id="visual" viewBox="0 0 960 140" width="960" height="140" xmlns="http://www.w3.org/2000/svg" xmlns:xlink="http://www.w3.org/1999/xlink" version="1.1"><path d="M0 66L6 64C12 62 24 58 35.8 53.7C47.7 49.3 59.3 44.7 71.2 44.5C83 44.3 95 48.7 106.8 51C118.7 53.3 130.3 53.7 142.2 51C154 48.3 166 42.7 177.8 43.7C189.7 44.7 201.3 52.3 213.2 50.2C225 48 237 36 248.8 33.2C260.7 30.3 272.3 36.7 284.2 38.8C296 41 308 39 320 39.5C332 40 344 43 355.8 42.5C367.7 42 379.3 38 391.2 35.2C403 32.3 415 30.7 426.8 27.7C438.7 24.7 450.3 20.3 462.2 24.7C474 29 486 42 497.8 44.2C509.7 46.3 521.3 37.7 533.2 36.5C545 35.3 557 41.7 568.8 40.3C580.7 39 592.3 30 604.2 26.7C616 23.3 628 25.7 640 25.7C652 25.7 664 23.3 675.8 24C687.7 24.7 699.3 28.3 711.2 31.8C723 35.3 735 38.7 746.8 41.2C758.7 43.7 770.3 45.3 782.2 47.3C794 49.3 806 51.7 817.8 52.2C829.7 52.7 841.3 51.3 853.2 46.8C865 42.3 877 34.7 888.8 35.8C900.7 37 912.3 47 924.2 45.8C936 44.7 948 32.3 954 26.2L960 20L960 0L954 0C948 0 936 0 924.2 0C912.3 0 900.7 0 888.8 0C877 0 865 0 853.2 0C841.3 0 829.7 0 817.8 0C806 0 794 0 782.2 0C770.3 0 758.7 0 746.8 0C735 0 723 0 711.2 0C699.3 0 687.7 0 675.8 0C664 0 652 0 640 0C628 0 616 0 604.2 0C592.3 0 580.7 0 568.8 0C557 0 545 0 533.2 0C521.3 0 509.7 0 497.8 0C486 0 474 0 462.2 0C450.3 0 438.7 0 426.8 0C415 0 403 0 391.2 0C379.3 0 367.7 0 355.8 0C344 0 332 0 320 0C308 0 296 0 284.2 0C272.3 0 260.7 0 248.8 0C237 0 225 0 213.2 0C201.3 0 189.7 0 177.8 0C166 0 154 0 142.2 0C130.3 0 118.7 0 106.8 0C95 0 83 0 71.2 0C59.3 0 47.7 0 35.8 0C24 0 12 0 6 0L0 0Z" fill="#fff700" stroke-linecap="round" stroke-linejoin="miter"></path></svg>